<svg width="93" height="63" viewBox="0 0 93 63" fill="none" xmlns="http://www.w3.org/2000/svg">
<g clip-path="url(#clip0_360_1407)">
<path d="M0.441528 57.1662C2.74403 49.2946 5.80364 42.38 10.6899 35.8061C13.4217 32.1308 16.6328 28.0532 20.8114 25.9006C27.3346 22.5402 24.3263 31.4501 23.3651 34.5263C21.1688 41.556 19.1946 48.6271 17.1407 55.6985C16.7376 57.0862 15.5582 61.2539 15.8656 59.8419C16.5865 56.5302 18.1765 53.1467 19.6704 50.1316C23.8163 41.7644 29.6943 32.354 36.9179 26.2514C39.3361 24.2085 41.1917 23.9173 40.5228 27.864C38.7095 38.5637 34.0796 48.685 31.5722 59.2373C31.0117 61.5965 30.6634 62.8383 32.3445 60.1927C36.5442 53.5831 41.0762 47.2349 46.1918 41.3C54.0891 32.1377 62.5831 23.356 71.6703 15.3678C78.0002 9.80334 84.6755 4.28564 92.2461 0.513184" stroke="#B9AC9E" stroke-width="2" stroke-linecap="round"/>
<path d="M90.1126 0.685547C85.3914 2.43637 80.67 4.17221 75.9325 5.87892" stroke="#B9AC9E" stroke-width="2" stroke-linecap="round"/>
<path d="M74.7472 6.9133C78.7247 7.08823 81.4453 7.12388 84.7777 9.15922C85.7829 9.77321 87.5776 11.2245 88.8196 11.2016C89.7424 11.1846 89.4334 8.33628 89.4708 7.75373C89.6306 5.26615 90.7651 3.55434 92.1383 1.56909" stroke="#B9AC9E" stroke-width="2" stroke-linecap="round"/>
</g>
<defs>
<clipPath id="clip0_360_1407">
<rect width="93" height="63" fill="white"/>
</clipPath>
</defs>
</svg>
