<svg width="24" height="24" viewBox="0 0 24 24" fill="none" xmlns="http://www.w3.org/2000/svg">
<g clip-path="url(#clip0_360_1139)">
<path d="M23 11.9999C23 10.2999 21.8 8.89985 20.2 8.59985C21.1 7.19985 20.9 5.39983 19.7 4.19983C18.5 2.99983 16.7 2.89983 15.3 3.69983C15 2.09983 13.6 0.899902 11.9 0.899902C10.2 0.899902 8.80005 2.09983 8.50005 3.69983C7.10005 2.79983 5.30005 2.99983 4.10005 4.19983C2.90005 5.39983 2.80005 7.19985 3.60005 8.59985C2.00005 8.89985 0.800049 10.2999 0.800049 11.9999C0.800049 13.6999 2.00005 15.0999 3.60005 15.3999C2.70005 16.7999 2.90005 18.5999 4.10005 19.7999C5.30005 20.9999 7.10005 21.0999 8.50005 20.2999C8.80005 21.8999 10.2 23.0999 11.9 23.0999C13.6 23.0999 15 21.8999 15.3 20.2999C16.7 21.1999 18.5 20.9999 19.7 19.7999C20.9 18.5999 21 16.7999 20.2 15.3999C21.8 15.0999 23 13.6999 23 11.9999Z" stroke="#00916E" stroke-width="2" stroke-linecap="round" stroke-linejoin="round"/>
<path d="M17 8.8999L11 14.8999L8 11.8999" stroke="#00916E" stroke-width="2" stroke-miterlimit="10" stroke-linecap="round" stroke-linejoin="round"/>
</g>
<defs>
<clipPath id="clip0_360_1139">
<rect width="24" height="24" fill="white"/>
</clipPath>
</defs>
</svg>
