<svg width="24" height="24" viewBox="0 0 24 24" fill="none" xmlns="http://www.w3.org/2000/svg">
<path fill-rule="evenodd" clip-rule="evenodd" d="M13.288 2.00013C14.8708 2.00444 15.2581 2.01991 16.1307 2.06132C17.1936 2.10818 17.9205 2.28003 18.5574 2.52622C19.2218 2.77622 19.8275 3.17091 20.3278 3.67884C20.8398 4.179 21.2306 4.78065 21.4846 5.45266C21.7308 6.08575 21.9027 6.81637 21.9496 7.8791C21.9898 8.79342 21.9984 9.17375 22.0001 10.9738L22.0002 12.5479C21.9986 14.769 21.9853 15.1328 21.9418 16.1233C21.8949 17.1861 21.7229 17.9129 21.4768 18.5498C20.957 19.8938 19.8941 20.9565 18.5496 21.4762C17.9166 21.7224 17.1858 21.8943 16.1229 21.9411C15.056 21.9881 14.716 21.9997 11.9999 21.9997L11.7179 21.9997C9.25866 21.9988 8.90567 21.9864 7.87701 21.9411C6.81391 21.8943 6.08711 21.7224 5.45008 21.4762C4.78572 21.2262 4.17998 20.8315 3.67973 20.3236C3.17169 19.8234 2.77707 19.2218 2.52305 18.5498C2.27682 17.9167 2.10478 17.1861 2.05791 16.1233C2.01942 15.2471 2.00461 14.8613 2.00055 13.2464L2.00067 10.7173C2.00499 9.13475 2.02046 8.74753 2.06188 7.87513C2.10875 6.8124 2.28064 6.08575 2.52687 5.44884C2.77707 4.78462 3.17169 4.179 3.67973 3.67884C4.17998 3.16694 4.78175 2.77622 5.45405 2.52225C6.08711 2.27622 6.81788 2.10421 7.88082 2.05735C8.75722 2.01886 9.1431 2.00406 10.7584 2L13.288 2.00013ZM13.0545 3.81645H10.9701C9.23248 3.81985 8.86958 3.83429 7.97074 3.87421C6.99771 3.91725 6.46616 4.08132 6.11444 4.21807C5.68059 4.37818 5.28979 4.63214 4.96555 4.96426C4.6294 5.28477 4.37538 5.67931 4.21509 6.11307C4.07831 6.46472 3.91421 6.99219 3.87131 7.969C3.82778 8.94213 3.81461 9.28887 3.81289 11.4534V12.5646C3.81461 14.7286 3.82778 15.0723 3.87131 16.0491C3.91421 17.022 4.07831 17.5534 4.21509 17.9051C4.37538 18.3387 4.6294 18.7294 4.96158 19.0537C5.28201 19.3858 5.67677 19.6398 6.11047 19.8001C6.46219 19.9368 6.98977 20.1009 7.96677 20.1438C8.86236 20.1838 9.22755 20.1982 10.9661 20.2016H13.0492C14.7869 20.1982 15.1497 20.1838 16.0485 20.1438C17.0217 20.1009 17.5531 19.9368 17.9048 19.8001C18.7763 19.464 19.468 18.7724 19.8042 17.9011C19.941 17.5495 20.1051 17.022 20.1481 16.0452C20.1898 15.1074 20.2037 14.7563 20.2063 12.8155V11.2023C20.2037 9.26091 20.1898 8.90673 20.1481 7.969C20.1051 6.99601 19.941 6.46472 19.8042 6.11307C19.6439 5.67931 19.3899 5.28859 19.0577 4.96426C18.7373 4.63214 18.3425 4.37818 17.9088 4.21807C17.5571 4.08132 17.0295 3.91725 16.0525 3.87421C15.1569 3.83429 14.7946 3.81985 13.0545 3.81645ZM12.0038 6.86322C14.841 6.86322 17.1428 9.16451 17.1428 12.0012C17.1428 14.8379 14.841 17.1392 12.0038 17.1392C9.16664 17.1392 6.86474 14.8379 6.86474 12.0012C6.86474 9.16451 9.16664 6.86322 12.0038 6.86322ZM12.0038 8.66833C10.1632 8.66833 8.67021 10.1609 8.67021 12.0012C8.67021 13.8416 10.1632 15.3341 12.0038 15.3341C13.8445 15.3341 15.3373 13.8416 15.3373 12.0012C15.3373 10.1609 13.8445 8.66833 12.0038 8.66833ZM17.346 5.4606C18.0086 5.4606 18.5458 5.99753 18.5458 6.66008C18.5458 7.32248 18.0086 7.85957 17.346 7.85957C16.6834 7.85957 16.1462 7.32248 16.1462 6.66008C16.1462 5.99753 16.6834 5.4606 17.346 5.4606Z" fill="white"/>
</svg>
