<svg width="285" height="60" viewBox="0 0 285 60" fill="none" xmlns="http://www.w3.org/2000/svg">
<path d="M104.691 2.45654C104.97 2.5425 105.217 2.66112 105.435 2.80552C105.004 2.60095 104.74 2.47889 104.691 2.45654Z" fill="url(#paint0_linear_218_196)"/>
<path d="M73.8849 30.3628C73.8508 30.3992 73.8261 30.4251 73.8147 30.439C73.8375 30.413 73.8621 30.3888 73.8849 30.3628Z" fill="#F69021"/>
<path d="M73.8843 30.3629C74.0613 30.179 74.5263 29.7097 75.11 29.0513C74.6977 29.4759 74.2872 29.9091 73.8843 30.3629Z" fill="#F69021"/>
<path d="M0 41.4974C2.48534 42.0097 4.99893 42.3329 7.49369 42.3982C8.74201 42.424 9.98468 42.3862 11.2123 42.2779C12.4399 42.1558 13.6543 41.9839 14.8424 41.7175C16.0305 41.4544 17.1959 41.1244 18.3275 40.7204C18.8924 40.5175 19.4516 40.3009 19.9995 40.062C20.5511 39.8316 21.0915 39.5806 21.6262 39.3159C23.7576 38.2552 25.7534 36.9676 27.6231 35.5287C31.3737 32.6544 34.6385 29.2231 37.781 25.6662C38.5661 24.7758 39.3418 23.8732 40.1119 22.9621L42.4316 20.2253L44.7606 17.4662C45.5496 16.5499 46.3441 15.6336 47.1537 14.7208C47.9634 13.8079 48.788 12.9002 49.6353 12.0029C50.4901 11.1107 51.3656 10.227 52.2788 9.36405C53.1901 8.50107 54.1372 7.65699 55.1313 6.84386C56.1311 6.0376 57.1779 5.26229 58.2907 4.54542C59.3997 3.82684 60.5765 3.16499 61.8229 2.59769C63.0712 2.03554 64.3911 1.56795 65.7618 1.23444C67.1325 0.907816 68.5522 0.701525 69.9756 0.679176C70.1526 0.6723 70.3314 0.674019 70.5084 0.674019H70.7739L71.0243 0.682615C71.3557 0.692929 71.6871 0.703244 72.0203 0.722154C72.6831 0.751378 73.3477 0.80467 74.0105 0.861401C76.6578 1.12442 79.2937 1.63328 81.8036 2.44469C82.4305 2.64582 83.0519 2.85899 83.6638 3.09107C84.2738 3.32659 84.8745 3.57414 85.4676 3.83372C86.0606 4.0933 86.6424 4.36492 87.2167 4.64513C87.7891 4.92878 88.3521 5.22103 88.9094 5.51843C91.1443 6.6943 93.2248 7.99393 95.4503 8.96179C96.5612 9.44829 97.7154 9.84196 98.9261 10.0792C99.5304 10.1961 100.148 10.2855 100.775 10.3233C101.402 10.3628 102.037 10.3611 102.675 10.3285C102.061 10.4918 101.43 10.6087 100.786 10.6809C100.144 10.7514 99.4909 10.7857 98.8357 10.7617C97.5233 10.7239 96.2148 10.4832 94.957 10.1394C93.6993 9.78867 92.4849 9.34686 91.3081 8.87583C90.1276 8.40824 88.9734 7.92345 87.8267 7.46273C87.2525 7.23237 86.6782 7.01061 86.104 6.79916C85.5316 6.58427 84.9554 6.3797 84.3793 6.18888C83.8012 5.99806 83.2232 5.82099 82.6395 5.65596C82.0596 5.48921 81.4741 5.33621 80.8866 5.2004C78.5387 4.65545 76.1456 4.34085 73.73 4.24974C73.1256 4.22739 72.5231 4.2102 71.9168 4.21364C71.6136 4.21192 71.3105 4.2188 71.0074 4.22395L70.7814 4.22911L70.5706 4.23771C70.4312 4.24286 70.29 4.2463 70.1507 4.25834C69.0342 4.32882 67.9346 4.5162 66.8595 4.80673C64.7112 5.39982 62.6815 6.42956 60.7836 7.70341C59.8346 8.33947 58.9196 9.0443 58.0309 9.78695C57.1384 10.5262 56.2723 11.3066 55.4269 12.118C54.5815 12.9277 53.7587 13.7684 52.9472 14.6262C52.1301 15.4789 51.328 16.3522 50.5334 17.2358C49.737 18.1194 48.95 19.0168 48.1629 19.9176L45.7849 22.6269C44.9885 23.5328 44.1939 24.4423 43.3805 25.3448C42.5671 26.2456 41.7425 27.1447 40.9027 28.0352C37.5513 31.5937 33.9193 35.0508 29.6735 37.9148C27.5478 39.3348 25.2733 40.6035 22.8369 41.5765C21.6244 42.0699 20.3723 42.4842 19.0957 42.816C18.4593 42.9844 17.8135 43.1254 17.1658 43.2543C16.5162 43.3747 15.8648 43.4795 15.2095 43.5552C12.5905 43.8749 9.94325 43.8199 7.38448 43.4486C4.82571 43.0755 2.34978 42.3965 0 41.4974Z" fill="#F69021"/>
<path d="M98.7246 0.436768C100.897 0.661969 103.046 1.1055 105.149 1.67624C105.676 1.8172 106.196 1.97536 106.719 2.12664C107.241 2.2848 107.758 2.45155 108.272 2.62518C109.308 2.96212 110.321 3.34548 111.334 3.73571C112.341 4.13455 113.341 4.55057 114.328 4.99066C115.31 5.43762 116.291 5.88802 117.254 6.37281C118.214 6.85931 119.174 7.34926 120.112 7.8753C120.582 8.1366 121.049 8.40306 121.516 8.67468L122.215 9.08726C122.452 9.22823 122.672 9.36404 122.925 9.52563L121.16 12.9415C119.649 12.6234 118.067 12.5959 116.482 12.7868C115.689 12.8813 114.898 13.0481 114.109 13.2475C113.32 13.4469 112.537 13.7013 111.767 13.9953C110.999 14.2944 110.232 14.6193 109.485 14.9855C108.736 15.3499 108.005 15.7574 107.282 16.1785C106.559 16.6014 105.853 17.057 105.166 17.5383C104.479 18.018 103.799 18.5148 103.145 19.0408C102.496 19.5686 101.852 20.1084 101.238 20.674C100.931 20.9559 100.628 21.2447 100.333 21.5387L99.3967 22.4739C98.0411 23.8216 96.4445 24.9494 94.7198 25.8038C93.0008 26.6685 91.1537 27.2581 89.2897 27.6105C88.3558 27.7842 87.4125 27.8959 86.473 27.9475C85.5334 27.9922 84.5901 27.9922 83.6656 27.8753C85.4882 27.5538 87.2261 27.0381 88.8642 26.3779C89.6832 26.0513 90.4721 25.6765 91.2309 25.2726C91.9859 24.8617 92.7089 24.4164 93.3886 23.9334C94.0664 23.4452 94.7085 22.9294 95.2978 22.3724C95.8834 21.812 96.4275 21.2224 96.9189 20.6018L97.2936 20.1187C97.4311 19.9365 97.5704 19.756 97.7135 19.5789C98.0016 19.2248 98.2972 18.8758 98.6022 18.532C99.2085 17.8443 99.8467 17.1773 100.521 16.5447C101.195 15.9104 101.893 15.2932 102.628 14.7104C103.364 14.1294 104.126 13.5741 104.919 13.0481C105.708 12.5186 106.542 12.039 107.395 11.5817C108.25 11.1296 109.133 10.7067 110.055 10.3474C110.974 9.98463 111.923 9.66488 112.902 9.4053C113.88 9.14399 114.892 8.95833 115.922 8.84143C116.952 8.72625 118.003 8.67984 119.057 8.74516C120.11 8.80533 121.164 8.96349 122.19 9.21276L120.426 12.6286L119.82 12.2126L119.189 11.7862C118.765 11.5043 118.338 11.2241 117.905 10.9473C117.041 10.3972 116.178 9.83679 115.299 9.30043C114.42 8.76407 113.544 8.21912 112.65 7.69823C111.761 7.16875 110.869 6.64615 109.963 6.13901C108.161 5.11099 106.329 4.12079 104.46 3.17357C102.592 2.21775 100.683 1.3221 98.7227 0.436768L98.7246 0.436768Z" fill="#F69021"/>
<path d="M71.7284 15.9603C72.6962 15.9534 73.6885 16.0651 74.6506 16.3488C75.6108 16.629 76.5579 17.0674 77.375 17.7241C78.1941 18.3704 78.8625 19.2609 79.2165 20.27C79.5686 21.2809 79.61 22.369 79.4273 23.3833C79.3332 23.8905 79.192 24.3821 79.0206 24.8617C78.8342 25.3311 78.629 25.7952 78.3861 26.2301C77.9154 27.1155 77.3355 27.92 76.7104 28.6781C76.3979 29.0563 76.074 29.4242 75.737 29.7784C75.4 30.1325 75.0497 30.4712 74.6958 30.8064L74.1592 31.298L73.6113 31.7759C73.4305 31.9375 73.2366 32.0837 73.0502 32.2384C72.8619 32.3914 72.6736 32.5427 72.4797 32.6888C70.9583 33.8853 69.3353 34.9322 67.6879 35.9241C66.0234 36.892 64.3308 37.7979 62.5967 38.618C59.136 40.2734 55.5624 41.6728 51.9248 42.8727L53.0752 41.2963C53.03 42.1799 52.949 43.0601 52.8153 43.9317C52.757 44.3683 52.676 44.8015 52.5932 45.233C52.5028 45.6645 52.4049 46.0926 52.2976 46.5189C51.8683 48.2225 51.2695 49.878 50.5277 51.4665C49.7896 53.0549 48.9047 54.5746 47.8993 56.0118C47.3909 56.7269 46.8581 57.4266 46.2838 58.0953C45.7095 58.7623 45.1127 59.4121 44.4461 60.0001C45.2991 58.5062 46.0202 56.9831 46.6528 55.4393C46.9729 54.6709 47.2591 53.8921 47.5265 53.1134C47.6564 52.7231 47.7863 52.3329 47.9011 51.9392C48.0254 51.549 48.1327 51.1553 48.2438 50.7634C48.4528 49.976 48.6336 49.187 48.7936 48.3979C48.8633 48.0008 48.9405 47.6071 48.997 47.2117C49.0666 46.818 49.1137 46.4209 49.1645 46.0255C49.3453 44.4422 49.4093 42.8624 49.334 41.2946L49.2831 40.2442L50.4844 39.7182C53.8886 38.226 57.2664 36.7201 60.5481 35.1024C62.1824 34.2841 63.8092 33.4641 65.3757 32.5736C66.9536 31.7003 68.4843 30.772 69.9416 29.7887C70.1261 29.6666 70.305 29.5411 70.482 29.4139C70.659 29.2867 70.8416 29.1629 71.0148 29.0323L71.542 28.6489L72.056 28.2552C72.3931 27.9888 72.7263 27.7172 73.0445 27.4387C73.3665 27.1619 73.6828 26.8817 73.9822 26.5929C74.5828 26.0153 75.1364 25.4101 75.6108 24.7792C76.0834 24.1466 76.4732 23.4847 76.7368 22.8057C76.9815 22.1267 77.1133 21.4287 77.0267 20.7376C76.9853 20.3921 76.8987 20.0466 76.7556 19.7113C76.6125 19.3761 76.4167 19.0478 76.1776 18.7349C75.6937 18.1108 75.0309 17.5556 74.2665 17.0931C73.5021 16.6273 72.6378 16.2645 71.7284 15.9603Z" fill="#F69021"/>
<path d="M83.355 26.3711C84.3925 26.9092 85.509 27.5985 86.2697 28.5578C87.3504 29.8523 87.5048 31.7054 86.795 33.1701C86.65 33.483 86.4542 33.844 86.2339 34.1053C85.8385 34.6142 85.251 35.0955 84.7973 35.4221C83.4887 36.3676 82.0069 37.0432 80.5214 37.6587C74.9331 39.811 68.9287 40.8992 62.8848 40.8252C62.1581 40.8098 61.4238 40.7685 60.6989 40.6894C60.6254 40.6808 60.5652 40.6327 60.5464 40.5674C60.5219 40.4797 60.5784 40.3903 60.6725 40.368C67.6691 38.642 74.7693 37.045 81.4063 34.3563C82.3647 33.9299 83.34 33.483 84.1119 32.816C84.1176 32.8108 84.1213 32.8074 84.127 32.8022C85.4431 31.4854 85.2171 29.8746 84.046 28.5371C83.2326 27.4954 82.0446 26.7063 81.2952 25.6078C81.2406 25.527 81.2745 25.4204 81.3668 25.3774" fill="#F69021"/>
<path d="M139.64 26V8.08H145.016V15.052L148.88 8.08H155.88L149.468 16.648L156.216 26H149.244L145.016 18.188V26H139.64ZM153.729 26L160.057 8.08H166.329L172.433 26H166.777L165.909 23.06H160.309L159.357 26H153.729ZM161.289 19.112H164.929L163.109 12.504L161.289 19.112ZM173.739 26V8.08H179.899L185.191 17.992V8.08H190.623V26H184.631L179.171 16.312V26H173.739ZM201.253 26.28C194.533 26.28 193.273 21.52 193.273 17.04C193.273 12.56 194.589 7.8 201.701 7.8C207.805 7.8 209.933 10.824 209.933 14.044H204.529C204.361 12.84 203.689 12 201.701 12C198.929 12 198.705 14.38 198.705 17.04C198.705 19.7 198.901 22.108 201.673 22.108C203.157 22.108 204.333 20.988 204.529 19.308H201.365V15.444H209.961V26H206.685L205.873 24.04C204.865 25.552 203.409 26.28 201.253 26.28ZM211.042 26L217.37 8.08H223.642L229.746 26H224.09L223.222 23.06H217.622L216.67 26H211.042ZM218.602 19.112H222.242L220.422 12.504L218.602 19.112ZM230.996 26V8.08H237.996C244.996 8.08 245.612 11.804 245.612 14.38C245.612 16.788 244.464 18.944 241.776 19.448L246.956 26H240.264L236.372 19.364V26H230.996ZM236.372 16.34H237.8C239.732 16.34 240.18 15.584 240.18 14.38C240.18 13.064 239.704 12.364 237.8 12.364H236.372V16.34ZM256.285 26.28C248.977 26.28 247.605 21.548 247.605 17.04C247.605 12.532 249.005 7.8 256.285 7.8C263.593 7.8 264.993 12.532 264.993 17.068C264.993 21.548 263.593 26.28 256.285 26.28ZM256.285 21.968C259.365 21.968 259.533 19.7 259.533 17.068C259.533 14.38 259.365 12.14 256.285 12.14C253.233 12.14 253.037 14.38 253.037 17.04C253.037 19.7 253.233 21.968 256.285 21.968ZM275.644 26.28C268.336 26.28 266.964 21.548 266.964 17.04C266.964 12.532 268.364 7.8 275.644 7.8C282.952 7.8 284.352 12.532 284.352 17.068C284.352 21.548 282.952 26.28 275.644 26.28ZM275.644 21.968C278.724 21.968 278.892 19.7 278.892 17.068C278.892 14.38 278.724 12.14 275.644 12.14C272.592 12.14 272.396 14.38 272.396 17.04C272.396 19.7 272.592 21.968 275.644 21.968Z" fill="#F8F2F3"/>
<path d="M143.795 53L137.635 35.08H143.431L146.931 47.932L150.543 35.08H156.311L149.983 53H143.795ZM157.589 53V35.08H170.889V39.364H162.937V41.94H170.077V45.832H162.937V48.716H170.889V53H157.589ZM173.532 53V35.08H179.692L184.984 44.992V35.08H190.416V53H184.424L178.964 43.312V53H173.532ZM196.706 53V39.364H192.478V35.08H206.254V39.364H202.026V53H196.706ZM216.069 53.28C210.301 53.28 208.005 50.704 208.005 45.132V35.08H213.409V45.132C213.409 47.988 214.025 48.828 216.069 48.828C218.141 48.828 218.729 47.988 218.729 45.132V35.08H224.161V45.132C224.161 50.704 221.865 53.28 216.069 53.28ZM227.179 53V35.08H234.179C241.179 35.08 241.795 38.804 241.795 41.38C241.795 43.788 240.647 45.944 237.959 46.448L243.139 53H236.447L232.555 46.364V53H227.179ZM232.555 43.34H233.983C235.915 43.34 236.363 42.584 236.363 41.38C236.363 40.064 235.887 39.364 233.983 39.364H232.555V43.34ZM244.461 53V35.08H257.761V39.364H249.809V41.94H256.949V45.832H249.809V48.716H257.761V53H244.461ZM267.683 53.28C262.055 53.28 259.451 51.096 259.451 46.616H264.827C264.827 48.436 265.667 49.192 267.571 49.192C269.027 49.192 269.867 48.716 269.867 47.68C269.867 46.812 269.139 46.336 265.807 45.692C261.523 44.824 259.815 43.284 259.815 40.512C259.815 36.872 262.503 34.8 267.291 34.8C272.359 34.8 274.935 36.956 274.935 41.24H269.643C269.643 39.532 268.943 38.86 267.151 38.86C265.807 38.86 265.135 39.336 265.135 40.26C265.135 41.464 267.039 41.772 268.831 42.192C273.283 43.228 275.131 44.516 275.131 47.4C275.131 50.984 272.219 53.28 267.683 53.28Z" fill="#F8F2F3"/>
<defs>
<linearGradient id="paint0_linear_218_196" x1="105.011" y1="2.69034" x2="105.074" y2="2.60573" gradientUnits="userSpaceOnUse">
<stop stop-color="#DC4775"/>
<stop offset="0.48" stop-color="#FF7761"/>
<stop offset="1" stop-color="#FCA553"/>
</linearGradient>
</defs>
</svg>
