<svg width="52" height="52" viewBox="0 0 52 52" fill="none" xmlns="http://www.w3.org/2000/svg">
<rect x="2" y="2" width="48" height="48" rx="4" fill="white"/>
<path d="M25 17H21.8C20.1198 17 19.2798 17 18.638 17.327C18.0735 17.6146 17.6146 18.0735 17.327 18.638C17 19.2798 17 20.1198 17 21.8V30.2C17 31.8802 17 32.7202 17.327 33.362C17.6146 33.9265 18.0735 34.3854 18.638 34.673C19.2798 35 20.1198 35 21.8 35H30.2C31.8802 35 32.7202 35 33.362 34.673C33.9265 34.3854 34.3854 33.9265 34.673 33.362C35 32.7202 35 31.8802 35 30.2V27M26 22H30V26M29.5 17.5V16M33.4393 18.5607L34.5 17.5M34.5103 22.5H36.0103M17 27.3471C17.6519 27.4478 18.3199 27.5 19 27.5C23.3864 27.5 27.2653 25.3276 29.6197 22" stroke="#F69021" stroke-width="2" stroke-linecap="round" stroke-linejoin="round"/>
<rect x="2" y="2" width="48" height="48" rx="4" stroke="#FFEAD6" stroke-width="4"/>
</svg>
