<svg width="24" height="24" viewBox="0 0 24 24" fill="none" xmlns="http://www.w3.org/2000/svg">
<path fill-rule="evenodd" clip-rule="evenodd" d="M21.9999 5.89415C21.2562 6.21538 20.4637 6.42831 19.6374 6.53169C20.4874 6.032 21.1362 5.24677 21.4412 4.30031C20.6487 4.76554 19.7737 5.09415 18.8412 5.27754C18.0887 4.48862 17.0162 4 15.8462 4C13.5762 4 11.7487 5.81415 11.7487 8.03815C11.7487 8.35815 11.7762 8.66585 11.8437 8.95877C8.43494 8.79508 5.41869 7.18646 3.39244 4.736C3.03869 5.34031 2.83119 6.032 2.83119 6.77661C2.83119 8.17477 3.56244 9.41415 4.65244 10.1317C3.99369 10.1194 3.34744 9.93108 2.79994 9.63446C2.79994 9.64677 2.79994 9.66277 2.79994 9.67877C2.79994 11.6406 4.22119 13.2702 6.08494 13.6455C5.75119 13.7354 5.38744 13.7785 5.00994 13.7785C4.74744 13.7785 4.48244 13.7637 4.23369 13.7095C4.76494 15.3083 6.27244 16.4837 8.06494 16.5218C6.66994 17.5963 4.89869 18.2437 2.98119 18.2437C2.64494 18.2437 2.32244 18.2289 1.99994 18.1883C3.81619 19.3415 5.96869 20 8.28994 20C15.8349 20 19.9599 13.8462 19.9599 8.512C19.9599 8.33354 19.9537 8.16123 19.9449 7.99015C20.7587 7.42154 21.4424 6.71138 21.9999 5.89415Z" fill="white"/>
</svg>
