<svg width="24" height="24" viewBox="0 0 24 24" fill="none" xmlns="http://www.w3.org/2000/svg">
<g clip-path="url(#clip0_360_1133)">
<path d="M4.7 7C2.7 7 1 5.39999 1 3.29999V3C1 1.9 1.9 1 3 1H8.3V3.29999C8.3 5.39999 6.7 7 4.7 7Z" stroke="#00916E" stroke-width="2" stroke-miterlimit="10" stroke-linecap="round" stroke-linejoin="round"/>
<path d="M12 7C10 7 8.30005 5.39999 8.30005 3.29999V1H15.6V3.29999C15.7 5.39999 14 7 12 7Z" stroke="#00916E" stroke-width="2" stroke-miterlimit="10" stroke-linecap="round" stroke-linejoin="round"/>
<path d="M19.3 7C17.3 7 15.6 5.39999 15.6 3.29999V1H20.9C22 1 22.9 1.9 22.9 3V3.29999C23 5.39999 21.4 7 19.3 7Z" stroke="#00916E" stroke-width="2" stroke-miterlimit="10" stroke-linecap="round" stroke-linejoin="round"/>
<path d="M21 15H3C2.4 15 2 15.4 2 16V21C2 22.1 2.9 23 4 23H20C21.1 23 22 22.1 22 21V16C22 15.4 21.6 15 21 15Z" stroke="#00916E" stroke-width="2" stroke-miterlimit="10" stroke-linecap="round" stroke-linejoin="round"/>
<path d="M4 14.9999V6.8999" stroke="#00916E" stroke-width="2" stroke-miterlimit="10" stroke-linecap="round" stroke-linejoin="round"/>
<path d="M20 14.9999V6.8999" stroke="#00916E" stroke-width="2" stroke-miterlimit="10" stroke-linecap="round" stroke-linejoin="round"/>
<path d="M7 19H12" stroke="#00916E" stroke-width="2" stroke-miterlimit="10" stroke-linecap="round" stroke-linejoin="round"/>
<path d="M16 19H17" stroke="#00916E" stroke-width="2" stroke-miterlimit="10" stroke-linecap="round" stroke-linejoin="round"/>
</g>
<defs>
<clipPath id="clip0_360_1133">
<rect width="24" height="24" fill="white"/>
</clipPath>
</defs>
</svg>
