<svg width="24" height="24" viewBox="0 0 24 24" fill="none" xmlns="http://www.w3.org/2000/svg">
<path fill-rule="evenodd" clip-rule="evenodd" d="M21.9999 12C21.9999 6.478 17.5219 2 11.9999 2C6.47794 2 1.99994 6.478 1.99994 12C1.99994 17.522 6.47794 22 11.9999 22C12.0587 22 12.1171 21.9988 12.1757 21.9977V14.2131H10.0273V11.7093H12.1757V9.86682C12.1757 7.72998 13.4802 6.56696 15.3863 6.56696C16.2991 6.56696 17.0837 6.63501 17.3124 6.66538V8.89865H15.998C14.9611 8.89865 14.7603 9.39151 14.7603 10.1146V11.7093H17.2398L16.9166 14.2131H14.7603V21.6136C18.9401 20.4154 21.9999 16.5645 21.9999 12Z" fill="white"/>
</svg>
