<svg width="52" height="52" viewBox="0 0 52 52" fill="none" xmlns="http://www.w3.org/2000/svg">
<rect x="2" y="2" width="48" height="48" rx="4" fill="white"/>
<g clip-path="url(#clip0_234_565)">
<path d="M33 37H19C16.8 37 15 35.2 15 33V19C15 16.8 16.8 15 19 15H33C35.2 15 37 16.8 37 19V33C37 35.2 35.2 37 33 37Z" stroke="#F69021" stroke-width="2" stroke-miterlimit="10" stroke-linecap="round" stroke-linejoin="round"/>
<path d="M15 30H19.2C19.7 30 20.2 30.2 20.6 30.6L22.4 32.4C22.8 32.8 23.3 33 23.8 33H28.1C28.6 33 29.1 32.8 29.5 32.4L31.3 30.6C31.7 30.2 32.2 30 32.7 30H37" stroke="#F69021" stroke-width="2" stroke-miterlimit="10" stroke-linecap="round" stroke-linejoin="round"/>
<path d="M20 25H32" stroke="#F69021" stroke-width="2" stroke-miterlimit="10" stroke-linecap="round" stroke-linejoin="round"/>
<path d="M20 20H32" stroke="#F69021" stroke-width="2" stroke-miterlimit="10" stroke-linecap="round" stroke-linejoin="round"/>
</g>
<rect x="2" y="2" width="48" height="48" rx="4" stroke="#FFEAD6" stroke-width="4"/>
<defs>
<clipPath id="clip0_234_565">
<rect width="24" height="24" fill="white" transform="translate(14 14)"/>
</clipPath>
</defs>
</svg>
