<svg width="279" height="88" viewBox="0 0 279 88" fill="none" xmlns="http://www.w3.org/2000/svg">
<g filter="url(#filter0_d_360_1074)">
<rect x="9" y="5" width="261" height="70" rx="10" fill="white"/>
</g>
<path fill-rule="evenodd" clip-rule="evenodd" d="M255.906 44.2098H242.216C242.528 47.4904 244.93 48.4561 247.654 48.4561C250.432 48.4561 252.618 47.8721 254.525 46.9083V52.5474C252.624 53.6 250.116 54.3616 246.772 54.3616C239.962 54.3616 235.188 50.0926 235.188 41.651C235.188 34.5228 239.237 28.8611 245.891 28.8611C252.533 28.8611 256 34.5209 256 41.6888C256 42.3654 255.938 43.8318 255.906 44.2098ZM245.845 34.5682C244.097 34.5682 242.154 35.8891 242.154 39.0432H249.384C249.384 35.8929 247.564 34.5682 245.845 34.5682ZM224.097 54.3616C221.65 54.3616 220.155 53.3279 219.15 52.5909L219.135 60.5109L212.143 62L212.139 29.3279H218.299L218.661 31.057C219.63 30.1518 221.399 28.8611 224.141 28.8611C229.052 28.8611 233.678 33.2888 233.678 41.4375C233.678 50.3326 229.101 54.3616 224.097 54.3616ZM222.47 35.0614C220.863 35.0614 219.858 35.6491 219.129 36.4485L219.171 46.8498C219.849 47.5849 220.829 48.1783 222.47 48.1783C225.054 48.1783 226.788 45.3606 226.788 41.5924C226.788 37.9301 225.028 35.0614 222.47 35.0614ZM202.262 29.3279H209.282V53.8608H202.262V29.3279ZM202.262 21.4948L209.282 20V25.7014L202.262 27.1943V21.4948ZM195.01 37.229V53.8608H188.02V29.3279H194.065L194.505 31.3972C196.141 28.3849 199.411 28.9953 200.342 29.3298V35.7625C199.452 35.4753 196.662 35.0557 195.01 37.229ZM180.25 45.2529C180.25 49.3783 184.662 48.0951 185.559 47.7361V53.4337C184.626 53.9458 182.937 54.3616 180.65 54.3616C176.5 54.3616 173.386 51.302 173.386 47.1578L173.416 24.7017L180.244 23.2504L180.25 29.3279H185.561V35.2957H180.25V45.2529ZM171.764 46.4472C171.764 51.4854 167.757 54.3616 161.942 54.3616C159.531 54.3616 156.895 53.8929 154.295 52.7723V46.0901C156.642 47.3676 159.632 48.3257 161.949 48.3257C163.509 48.3257 164.632 47.9061 164.632 46.6135C164.632 43.2724 154 44.531 154 36.7811C154 31.8261 157.782 28.8611 163.454 28.8611C165.771 28.8611 168.088 29.2183 170.405 30.1424V36.7339C168.277 35.5849 165.576 34.9329 163.448 34.9329C161.983 34.9329 161.073 35.3562 161.073 36.4504C161.073 39.5987 171.764 38.102 171.764 46.4472Z" fill="#32364E"/>
<path d="M26.7102 58.4545V43.9091H27.642V58.4545H26.7102ZM29.625 48.4205C29.5644 47.8826 29.3144 47.4659 28.875 47.1705C28.4356 46.8712 27.8826 46.7216 27.2159 46.7216C26.7386 46.7216 26.3258 46.7973 25.9773 46.9489C25.6288 47.0966 25.358 47.3011 25.1648 47.5625C24.9754 47.8201 24.8807 48.1136 24.8807 48.4432C24.8807 48.7197 24.9451 48.9583 25.0739 49.1591C25.2064 49.3598 25.3788 49.5284 25.5909 49.6648C25.8068 49.7973 26.0379 49.9091 26.2841 50C26.5303 50.0871 26.767 50.1591 26.9943 50.2159L28.1307 50.5114C28.5019 50.6023 28.8826 50.7254 29.2727 50.8807C29.6629 51.036 30.0246 51.2405 30.358 51.4943C30.6913 51.7481 30.9602 52.0625 31.1648 52.4375C31.3731 52.8125 31.4773 53.2614 31.4773 53.7841C31.4773 54.4432 31.3068 55.0284 30.9659 55.5398C30.6288 56.0511 30.1383 56.4545 29.4943 56.75C28.8542 57.0455 28.0795 57.1932 27.1705 57.1932C26.2992 57.1932 25.5455 57.0549 24.9091 56.7784C24.2727 56.5019 23.7746 56.1098 23.4148 55.6023C23.0549 55.0909 22.8561 54.4848 22.8182 53.7841H24.5795C24.6136 54.2045 24.75 54.5549 24.9886 54.8352C25.2311 55.1117 25.5398 55.3182 25.9148 55.4545C26.2936 55.5871 26.7083 55.6534 27.1591 55.6534C27.6553 55.6534 28.0966 55.5758 28.483 55.4205C28.8731 55.2614 29.1799 55.0417 29.4034 54.7614C29.6269 54.4773 29.7386 54.1458 29.7386 53.767C29.7386 53.4223 29.6402 53.1402 29.4432 52.9205C29.25 52.7008 28.9867 52.5189 28.6534 52.375C28.3239 52.2311 27.9508 52.1042 27.5341 51.9943L26.1591 51.6193C25.2273 51.3655 24.4886 50.9924 23.9432 50.5C23.4015 50.0076 23.1307 49.3561 23.1307 48.5455C23.1307 47.875 23.3125 47.2898 23.6761 46.7898C24.0398 46.2898 24.5322 45.9015 25.1534 45.625C25.7746 45.3447 26.4754 45.2045 27.2557 45.2045C28.0436 45.2045 28.7386 45.3428 29.3409 45.6193C29.947 45.8958 30.4242 46.2765 30.7727 46.7614C31.1212 47.2424 31.303 47.7955 31.3182 48.4205H29.625ZM33.4162 57V55.7273L37.3537 51.6477C37.7741 51.2045 38.1207 50.8163 38.3935 50.483C38.67 50.1458 38.8764 49.8258 39.0128 49.5227C39.1491 49.2197 39.2173 48.8977 39.2173 48.5568C39.2173 48.1705 39.1264 47.8371 38.9446 47.5568C38.7628 47.2727 38.5147 47.0549 38.2003 46.9034C37.8859 46.7481 37.5317 46.6705 37.1378 46.6705C36.7211 46.6705 36.3575 46.7557 36.0469 46.9261C35.7363 47.0966 35.4976 47.3371 35.331 47.6477C35.1643 47.9583 35.081 48.322 35.081 48.7386H33.4048C33.4048 48.0303 33.5677 47.411 33.8935 46.8807C34.2192 46.3504 34.6662 45.9394 35.2344 45.6477C35.8026 45.3523 36.4484 45.2045 37.1719 45.2045C37.9029 45.2045 38.5469 45.3504 39.1037 45.642C39.6643 45.9299 40.1018 46.3239 40.4162 46.8239C40.7306 47.3201 40.8878 47.8807 40.8878 48.5057C40.8878 48.9375 40.8063 49.3598 40.6435 49.7727C40.4844 50.1856 40.206 50.6458 39.8082 51.1534C39.4105 51.6572 38.8575 52.2689 38.1491 52.9886L35.8366 55.4091V55.4943H41.0753V57H33.4162ZM42.7344 54.7273V53.3068L47.7628 45.3636H48.8821V47.4545H48.1719L44.5753 53.1477V53.2386H51.4673V54.7273H42.7344ZM48.2514 57V54.2955L48.2628 53.6477V45.3636H49.9276V57H48.2514ZM57.2884 57.1591C56.5762 57.1591 55.9361 57.0227 55.3679 56.75C54.8035 56.4735 54.3527 56.0947 54.0156 55.6136C53.6785 55.1326 53.4986 54.5833 53.4759 53.9659H55.1804C55.2221 54.4659 55.4437 54.8769 55.8452 55.1989C56.2467 55.5208 56.7277 55.6818 57.2884 55.6818C57.7353 55.6818 58.1312 55.5795 58.4759 55.375C58.8243 55.1667 59.0971 54.8807 59.294 54.517C59.4948 54.1534 59.5952 53.7386 59.5952 53.2727C59.5952 52.7992 59.4929 52.3769 59.2884 52.0057C59.0838 51.6345 58.8016 51.3428 58.4418 51.1307C58.0857 50.9186 57.6766 50.8106 57.2145 50.8068C56.8622 50.8068 56.508 50.8674 56.152 50.9886C55.7959 51.1098 55.508 51.2689 55.2884 51.4659L53.6804 51.2273L54.3338 45.3636H60.7315V46.8693H55.794L55.4247 50.125H55.4929C55.7202 49.9053 56.0213 49.7216 56.3963 49.5739C56.7751 49.4261 57.1804 49.3523 57.6122 49.3523C58.3205 49.3523 58.9512 49.5208 59.5043 49.858C60.0611 50.1951 60.4986 50.6553 60.8168 51.2386C61.1387 51.8182 61.2978 52.4848 61.294 53.2386C61.2978 53.9924 61.1274 54.6648 60.7827 55.2557C60.4418 55.8466 59.9683 56.3125 59.3622 56.6534C58.7599 56.9905 58.0687 57.1591 57.2884 57.1591ZM64.0895 57.108C63.7789 57.108 63.5118 56.9981 63.2884 56.7784C63.0649 56.5549 62.9531 56.286 62.9531 55.9716C62.9531 55.661 63.0649 55.3958 63.2884 55.1761C63.5118 54.9527 63.7789 54.8409 64.0895 54.8409C64.4001 54.8409 64.6671 54.9527 64.8906 55.1761C65.1141 55.3958 65.2259 55.661 65.2259 55.9716C65.2259 56.1799 65.1728 56.3712 65.0668 56.5455C64.9645 56.7159 64.8281 56.8523 64.6577 56.9545C64.4872 57.0568 64.2978 57.108 64.0895 57.108ZM71.108 57.1932C70.2102 57.1894 69.4432 56.9527 68.8068 56.483C68.1705 56.0133 67.6837 55.3295 67.3466 54.4318C67.0095 53.5341 66.8409 52.4527 66.8409 51.1875C66.8409 49.9261 67.0095 48.8485 67.3466 47.9545C67.6875 47.0606 68.1761 46.3788 68.8125 45.9091C69.4527 45.4394 70.2178 45.2045 71.108 45.2045C71.9981 45.2045 72.7614 45.4413 73.3977 45.9148C74.0341 46.3845 74.5208 47.0663 74.858 47.9602C75.1989 48.8504 75.3693 49.9261 75.3693 51.1875C75.3693 52.4564 75.2008 53.5398 74.8636 54.4375C74.5265 55.3314 74.0398 56.0152 73.4034 56.4886C72.767 56.9583 72.0019 57.1932 71.108 57.1932ZM71.108 55.6761C71.8958 55.6761 72.5114 55.2917 72.9545 54.5227C73.4015 53.7538 73.625 52.642 73.625 51.1875C73.625 50.2216 73.5227 49.4053 73.3182 48.7386C73.1174 48.0682 72.8277 47.5606 72.4489 47.2159C72.0739 46.8674 71.6269 46.6932 71.108 46.6932C70.3239 46.6932 69.7083 47.0795 69.2614 47.8523C68.8144 48.625 68.589 49.7367 68.5852 51.1875C68.5852 52.1572 68.6856 52.9773 68.8864 53.6477C69.0909 54.3144 69.3807 54.8201 69.7557 55.1648C70.1307 55.5057 70.5814 55.6761 71.108 55.6761ZM81.4361 57.1932C80.5384 57.1894 79.7713 56.9527 79.1349 56.483C78.4986 56.0133 78.0118 55.3295 77.6747 54.4318C77.3376 53.5341 77.169 52.4527 77.169 51.1875C77.169 49.9261 77.3376 48.8485 77.6747 47.9545C78.0156 47.0606 78.5043 46.3788 79.1406 45.9091C79.7808 45.4394 80.5459 45.2045 81.4361 45.2045C82.3262 45.2045 83.0895 45.4413 83.7259 45.9148C84.3622 46.3845 84.849 47.0663 85.1861 47.9602C85.527 48.8504 85.6974 49.9261 85.6974 51.1875C85.6974 52.4564 85.5289 53.5398 85.1918 54.4375C84.8546 55.3314 84.3679 56.0152 83.7315 56.4886C83.0952 56.9583 82.33 57.1932 81.4361 57.1932ZM81.4361 55.6761C82.224 55.6761 82.8395 55.2917 83.2827 54.5227C83.7296 53.7538 83.9531 52.642 83.9531 51.1875C83.9531 50.2216 83.8509 49.4053 83.6463 48.7386C83.4455 48.0682 83.1558 47.5606 82.777 47.2159C82.402 46.8674 81.955 46.6932 81.4361 46.6932C80.652 46.6932 80.0365 47.0795 79.5895 47.8523C79.1425 48.625 78.9171 49.7367 78.9134 51.1875C78.9134 52.1572 79.0137 52.9773 79.2145 53.6477C79.419 54.3144 79.7088 54.8201 80.0838 55.1648C80.4588 55.5057 80.9096 55.6761 81.4361 55.6761Z" fill="black"/>
<path d="M28.0227 24C27.929 23.7131 27.8054 23.456 27.652 23.2287C27.5014 22.9986 27.321 22.8026 27.1108 22.6406C26.9034 22.4787 26.6676 22.3551 26.4034 22.2699C26.1392 22.1847 25.8494 22.142 25.5341 22.142C25.017 22.142 24.5469 22.2756 24.1236 22.5426C23.7003 22.8097 23.3636 23.2031 23.1136 23.723C22.8636 24.2429 22.7386 24.8807 22.7386 25.6364C22.7386 26.392 22.8651 27.0298 23.1179 27.5497C23.3707 28.0696 23.7131 28.4631 24.1449 28.7301C24.5767 28.9972 25.0625 29.1307 25.6023 29.1307C26.1023 29.1307 26.5426 29.0241 26.9233 28.8111C27.3068 28.5952 27.6051 28.2912 27.8182 27.8991C28.0341 27.5043 28.142 27.0398 28.142 26.5057L28.4659 26.5739H25.8409V25.6364H29.1648V26.5739C29.1648 27.2926 29.0114 27.9176 28.7045 28.4489C28.4006 28.9801 27.9801 29.392 27.4432 29.6847C26.9091 29.9744 26.2955 30.1193 25.6023 30.1193C24.8295 30.1193 24.1506 29.9375 23.5653 29.5739C22.983 29.2102 22.5284 28.6932 22.2017 28.0227C21.8778 27.3523 21.7159 26.5568 21.7159 25.6364C21.7159 24.946 21.8082 24.3253 21.9929 23.7741C22.1804 23.2202 22.4446 22.7486 22.7855 22.3594C23.1264 21.9702 23.5298 21.6719 23.9957 21.4645C24.4616 21.2571 24.9744 21.1534 25.5341 21.1534C25.9943 21.1534 26.4233 21.223 26.821 21.3622C27.2216 21.4986 27.5781 21.6932 27.8906 21.946C28.206 22.196 28.4688 22.4957 28.679 22.8452C28.8892 23.1918 29.0341 23.5767 29.1136 24H28.0227ZM33.5827 30.1364C32.9521 30.1364 32.408 29.9972 31.9506 29.7188C31.4961 29.4375 31.1452 29.0455 30.8981 28.5426C30.6538 28.0369 30.5316 27.4489 30.5316 26.7784C30.5316 26.108 30.6538 25.517 30.8981 25.0057C31.1452 24.4915 31.489 24.0909 31.9293 23.804C32.3725 23.5142 32.8896 23.3693 33.4805 23.3693C33.8214 23.3693 34.158 23.4261 34.4904 23.5398C34.8228 23.6534 35.1254 23.8381 35.3981 24.0938C35.6708 24.3466 35.8881 24.6818 36.0501 25.0994C36.212 25.517 36.293 26.0312 36.293 26.642V27.0682H31.2475V26.1989H35.2702C35.2702 25.8295 35.1964 25.5 35.0487 25.2102C34.9038 24.9205 34.6964 24.6918 34.4265 24.5241C34.1594 24.3565 33.8441 24.2727 33.4805 24.2727C33.0799 24.2727 32.7333 24.3722 32.4407 24.571C32.1509 24.767 31.9279 25.0227 31.7717 25.3381C31.6154 25.6534 31.5373 25.9915 31.5373 26.3523V26.9318C31.5373 27.4261 31.6225 27.8452 31.793 28.1889C31.9663 28.5298 32.2063 28.7898 32.5131 28.9688C32.82 29.1449 33.1765 29.233 33.5827 29.233C33.8469 29.233 34.0856 29.196 34.2987 29.1222C34.5146 29.0455 34.7006 28.9318 34.8569 28.7812C35.0131 28.6278 35.1339 28.4375 35.2191 28.2102L36.1907 28.483C36.0884 28.8125 35.9165 29.1023 35.6751 29.3523C35.4336 29.5994 35.1353 29.7926 34.7802 29.9318C34.4251 30.0682 34.0259 30.1364 33.5827 30.1364ZM40.6694 23.4545V24.3068H37.2773V23.4545H40.6694ZM38.266 21.8864H39.2717V28.125C39.2717 28.4091 39.3129 28.6222 39.3952 28.7642C39.4805 28.9034 39.5884 28.9972 39.7191 29.0455C39.8526 29.0909 39.9933 29.1136 40.141 29.1136C40.2518 29.1136 40.3427 29.108 40.4137 29.0966C40.4847 29.0824 40.5415 29.071 40.5842 29.0625L40.7887 29.9659C40.7205 29.9915 40.6254 30.017 40.5032 30.0426C40.381 30.071 40.2262 30.0852 40.0387 30.0852C39.7546 30.0852 39.4762 30.0241 39.2035 29.902C38.9336 29.7798 38.7092 29.5938 38.5302 29.3438C38.354 29.0938 38.266 28.7784 38.266 28.3977V21.8864ZM50.4663 23.4545C50.4151 23.0227 50.2077 22.6875 49.8441 22.4489C49.4805 22.2102 49.0344 22.0909 48.506 22.0909C48.1197 22.0909 47.7816 22.1534 47.4918 22.2784C47.2049 22.4034 46.9805 22.5753 46.8185 22.794C46.6594 23.0128 46.5799 23.2614 46.5799 23.5398C46.5799 23.7727 46.6353 23.973 46.7461 24.1406C46.8597 24.3054 47.0046 24.4432 47.1808 24.554C47.3569 24.6619 47.5415 24.7514 47.7347 24.8224C47.9279 24.8906 48.1055 24.946 48.2674 24.9886L49.1538 25.2273C49.381 25.2869 49.6339 25.3693 49.9123 25.4744C50.1935 25.5795 50.462 25.723 50.7177 25.9048C50.9762 26.0838 51.1893 26.3139 51.3569 26.5952C51.5245 26.8764 51.6083 27.2216 51.6083 27.6307C51.6083 28.1023 51.4847 28.5284 51.2376 28.9091C50.9933 29.2898 50.6353 29.5923 50.1637 29.8168C49.695 30.0412 49.1254 30.1534 48.4549 30.1534C47.8299 30.1534 47.2887 30.0526 46.8313 29.8509C46.3768 29.6491 46.0188 29.3679 45.7575 29.0071C45.4989 28.6463 45.3526 28.2273 45.3185 27.75H46.4094C46.4379 28.0795 46.5487 28.3523 46.7418 28.5682C46.9379 28.7812 47.185 28.9403 47.4833 29.0455C47.7844 29.1477 48.1083 29.1989 48.4549 29.1989C48.8583 29.1989 49.2205 29.1335 49.5415 29.0028C49.8626 28.8693 50.1168 28.6847 50.3043 28.4489C50.4918 28.2102 50.5856 27.9318 50.5856 27.6136C50.5856 27.3239 50.5046 27.0881 50.3427 26.9062C50.1808 26.7244 49.9677 26.5767 49.7035 26.4631C49.4393 26.3494 49.1538 26.25 48.8469 26.1648L47.7731 25.858C47.0913 25.6619 46.5515 25.3821 46.1538 25.0185C45.756 24.6548 45.5572 24.179 45.5572 23.5909C45.5572 23.1023 45.6893 22.6761 45.9535 22.3125C46.2205 21.946 46.5785 21.6619 47.0273 21.4602C47.479 21.2557 47.9833 21.1534 48.5401 21.1534C49.1026 21.1534 49.6026 21.2543 50.0401 21.456C50.4776 21.6548 50.8242 21.9276 51.0799 22.2741C51.3384 22.6207 51.4748 23.0142 51.489 23.4545H50.4663ZM56.0561 23.4545V24.3068H52.6641V23.4545H56.0561ZM53.6527 21.8864H54.6584V28.125C54.6584 28.4091 54.6996 28.6222 54.782 28.7642C54.8672 28.9034 54.9751 28.9972 55.1058 29.0455C55.2393 29.0909 55.38 29.1136 55.5277 29.1136C55.6385 29.1136 55.7294 29.108 55.8004 29.0966C55.8714 29.0824 55.9283 29.071 55.9709 29.0625L56.1754 29.9659C56.1072 29.9915 56.0121 30.017 55.8899 30.0426C55.7678 30.071 55.6129 30.0852 55.4254 30.0852C55.1413 30.0852 54.8629 30.0241 54.5902 29.902C54.3203 29.7798 54.0959 29.5938 53.9169 29.3438C53.7408 29.0938 53.6527 28.7784 53.6527 28.3977V21.8864ZM57.5689 30V23.4545H58.5405V24.4432H58.6087C58.728 24.1193 58.9439 23.8565 59.2564 23.6548C59.5689 23.4531 59.9212 23.3523 60.3132 23.3523C60.3871 23.3523 60.4794 23.3537 60.5902 23.3565C60.701 23.3594 60.7848 23.3636 60.8416 23.3693V24.392C60.8075 24.3835 60.7294 24.3707 60.6072 24.3537C60.4879 24.3338 60.3615 24.3239 60.228 24.3239C59.9098 24.3239 59.6257 24.3906 59.3757 24.5241C59.1286 24.6548 58.9325 24.8366 58.7876 25.0696C58.6456 25.2997 58.5746 25.5625 58.5746 25.858V30H57.5689ZM62.0337 30V23.4545H63.0394V30H62.0337ZM62.5451 22.3636C62.3491 22.3636 62.18 22.2969 62.038 22.1634C61.8988 22.0298 61.8292 21.8693 61.8292 21.6818C61.8292 21.4943 61.8988 21.3338 62.038 21.2003C62.18 21.0668 62.3491 21 62.5451 21C62.7411 21 62.9087 21.0668 63.0479 21.2003C63.19 21.3338 63.261 21.4943 63.261 21.6818C63.261 21.8693 63.19 22.0298 63.0479 22.1634C62.9087 22.2969 62.7411 22.3636 62.5451 22.3636ZM64.8814 32.4545V23.4545H65.853V24.4943H65.9723C66.0462 24.3807 66.1484 24.2358 66.2791 24.0597C66.4126 23.8807 66.603 23.7216 66.8501 23.5824C67.1001 23.4403 67.4382 23.3693 67.8643 23.3693C68.4155 23.3693 68.9013 23.5071 69.3217 23.7827C69.7422 24.0582 70.0703 24.4489 70.3061 24.9545C70.5419 25.4602 70.6598 26.0568 70.6598 26.7443C70.6598 27.4375 70.5419 28.0384 70.3061 28.5469C70.0703 29.0526 69.7436 29.4446 69.326 29.723C68.9084 29.9986 68.4268 30.1364 67.8814 30.1364C67.4609 30.1364 67.1243 30.0668 66.8714 29.9276C66.6186 29.7855 66.424 29.625 66.2876 29.446C66.1513 29.2642 66.0462 29.1136 65.9723 28.9943H65.8871V32.4545H64.8814ZM65.87 26.7273C65.87 27.2216 65.9425 27.6577 66.0874 28.0355C66.2322 28.4105 66.4439 28.7045 66.7223 28.9176C67.0007 29.1278 67.3416 29.233 67.745 29.233C68.1655 29.233 68.5163 29.1222 68.7976 28.9006C69.0817 28.6761 69.2947 28.375 69.4368 27.9972C69.5817 27.6165 69.6541 27.1932 69.6541 26.7273C69.6541 26.267 69.5831 25.8523 69.4411 25.483C69.3018 25.1108 69.0902 24.8168 68.8061 24.6009C68.5249 24.3821 68.1712 24.2727 67.745 24.2727C67.3359 24.2727 66.9922 24.3764 66.7138 24.5838C66.4354 24.7884 66.2251 25.0753 66.0831 25.4446C65.9411 25.8111 65.87 26.2386 65.87 26.7273ZM74.9382 30.1364C74.3075 30.1364 73.7635 29.9972 73.3061 29.7188C72.8516 29.4375 72.5007 29.0455 72.2536 28.5426C72.0092 28.0369 71.8871 27.4489 71.8871 26.7784C71.8871 26.108 72.0092 25.517 72.2536 25.0057C72.5007 24.4915 72.8445 24.0909 73.2848 23.804C73.728 23.5142 74.245 23.3693 74.8359 23.3693C75.1768 23.3693 75.5135 23.4261 75.8459 23.5398C76.1783 23.6534 76.4808 23.8381 76.7536 24.0938C77.0263 24.3466 77.2436 24.6818 77.4055 25.0994C77.5675 25.517 77.6484 26.0312 77.6484 26.642V27.0682H72.603V26.1989H76.6257C76.6257 25.8295 76.5518 25.5 76.4041 25.2102C76.2592 24.9205 76.0518 24.6918 75.782 24.5241C75.5149 24.3565 75.1996 24.2727 74.8359 24.2727C74.4354 24.2727 74.0888 24.3722 73.7962 24.571C73.5064 24.767 73.2834 25.0227 73.1271 25.3381C72.9709 25.6534 72.8928 25.9915 72.8928 26.3523V26.9318C72.8928 27.4261 72.978 27.8452 73.1484 28.1889C73.3217 28.5298 73.5618 28.7898 73.8686 28.9688C74.1754 29.1449 74.532 29.233 74.9382 29.233C75.2024 29.233 75.4411 29.196 75.6541 29.1222C75.87 29.0455 76.0561 28.9318 76.2124 28.7812C76.3686 28.6278 76.4893 28.4375 76.5746 28.2102L77.5462 28.483C77.4439 28.8125 77.272 29.1023 77.0305 29.3523C76.7891 29.5994 76.4908 29.7926 76.1357 29.9318C75.7805 30.0682 75.3814 30.1364 74.9382 30.1364ZM82.6896 30V21.2727H85.6385C86.3232 21.2727 86.8828 21.3963 87.3175 21.6435C87.755 21.8878 88.0788 22.2188 88.2891 22.6364C88.4993 23.054 88.6044 23.5199 88.6044 24.0341C88.6044 24.5483 88.4993 25.0156 88.2891 25.4361C88.0817 25.8565 87.7607 26.1918 87.326 26.4418C86.8913 26.6889 86.3345 26.8125 85.6555 26.8125H83.5419V25.875H85.6214C86.0902 25.875 86.4666 25.794 86.7507 25.6321C87.0348 25.4702 87.2408 25.2514 87.3686 24.9759C87.4993 24.6974 87.5646 24.3835 87.5646 24.0341C87.5646 23.6847 87.4993 23.3722 87.3686 23.0966C87.2408 22.821 87.0334 22.6051 86.7464 22.4489C86.4595 22.2898 86.0788 22.2102 85.6044 22.2102H83.7464V30H82.6896ZM92.0966 30.1534C91.6818 30.1534 91.3054 30.0753 90.9673 29.919C90.6293 29.7599 90.3608 29.5312 90.1619 29.233C89.9631 28.9318 89.8636 28.5682 89.8636 28.142C89.8636 27.767 89.9375 27.4631 90.0852 27.2301C90.233 26.9943 90.4304 26.8097 90.6776 26.6761C90.9247 26.5426 91.1974 26.4432 91.4957 26.3778C91.7969 26.3097 92.0994 26.2557 92.4034 26.2159C92.8011 26.1648 93.1236 26.1264 93.3707 26.1009C93.6207 26.0724 93.8026 26.0256 93.9162 25.9602C94.0327 25.8949 94.0909 25.7812 94.0909 25.6193V25.5852C94.0909 25.1648 93.9759 24.8381 93.7457 24.6051C93.5185 24.3722 93.1733 24.2557 92.7102 24.2557C92.2301 24.2557 91.8537 24.3608 91.581 24.571C91.3082 24.7812 91.1165 25.0057 91.0057 25.2443L90.0511 24.9034C90.2216 24.5057 90.4489 24.196 90.733 23.9744C91.0199 23.75 91.3324 23.5937 91.6705 23.5057C92.0114 23.4148 92.3466 23.3693 92.6761 23.3693C92.8864 23.3693 93.1278 23.3949 93.4006 23.446C93.6761 23.4943 93.9418 23.5952 94.1974 23.7486C94.456 23.902 94.6705 24.1335 94.8409 24.4432C95.0114 24.7528 95.0966 25.1676 95.0966 25.6875V30H94.0909V29.1136H94.0398C93.9716 29.2557 93.858 29.4077 93.6989 29.5696C93.5398 29.7315 93.3281 29.8693 93.0639 29.983C92.7997 30.0966 92.4773 30.1534 92.0966 30.1534ZM92.25 29.25C92.6477 29.25 92.983 29.1719 93.2557 29.0156C93.5313 28.8594 93.7386 28.6577 93.8778 28.4105C94.0199 28.1634 94.0909 27.9034 94.0909 27.6307V26.7102C94.0483 26.7614 93.9545 26.8082 93.8097 26.8509C93.6676 26.8906 93.5028 26.9261 93.3153 26.9574C93.1307 26.9858 92.9503 27.0114 92.7741 27.0341C92.6009 27.054 92.4602 27.071 92.3523 27.0852C92.0909 27.1193 91.8466 27.1747 91.6193 27.2514C91.3949 27.3253 91.2131 27.4375 91.0739 27.5881C90.9375 27.7358 90.8693 27.9375 90.8693 28.1932C90.8693 28.5426 90.9986 28.8068 91.2571 28.9858C91.5185 29.1619 91.8494 29.25 92.25 29.25ZM97.3455 32.4545C97.1751 32.4545 97.0231 32.4403 96.8896 32.4119C96.756 32.3864 96.6637 32.3608 96.6126 32.3352L96.8683 31.4489C97.1126 31.5114 97.3285 31.5341 97.516 31.517C97.7035 31.5 97.8697 31.4162 98.0146 31.2656C98.1623 31.1179 98.2972 30.8778 98.4194 30.5455L98.6069 30.0341L96.1864 23.4545H97.2773L99.0842 28.6705H99.1523L100.959 23.4545H102.05L99.2717 30.9545C99.1467 31.2926 98.9918 31.5724 98.8072 31.794C98.6225 32.0185 98.408 32.1847 98.1637 32.2926C97.9222 32.4006 97.6495 32.4545 97.3455 32.4545ZM103.377 30V23.4545H104.349V24.4773H104.434C104.571 24.1278 104.791 23.8565 105.095 23.6634C105.399 23.4673 105.764 23.3693 106.19 23.3693C106.622 23.3693 106.981 23.4673 107.268 23.6634C107.558 23.8565 107.784 24.1278 107.946 24.4773H108.014C108.181 24.1392 108.433 23.8707 108.768 23.6719C109.103 23.4702 109.505 23.3693 109.974 23.3693C110.559 23.3693 111.038 23.5526 111.41 23.919C111.782 24.2827 111.968 24.8494 111.968 25.6193V30H110.963V25.6193C110.963 25.1364 110.831 24.7912 110.566 24.5838C110.302 24.3764 109.991 24.2727 109.633 24.2727C109.173 24.2727 108.816 24.4119 108.564 24.6903C108.311 24.9659 108.184 25.3153 108.184 25.7386V30H107.162V25.517C107.162 25.1449 107.041 24.8452 106.799 24.6179C106.558 24.3878 106.247 24.2727 105.866 24.2727C105.605 24.2727 105.36 24.3423 105.133 24.4815C104.909 24.6207 104.727 24.8139 104.588 25.0611C104.451 25.3054 104.383 25.5881 104.383 25.9091V30H103.377ZM116.551 30.1364C115.921 30.1364 115.377 29.9972 114.919 29.7188C114.465 29.4375 114.114 29.0455 113.867 28.5426C113.623 28.0369 113.5 27.4489 113.5 26.7784C113.5 26.108 113.623 25.517 113.867 25.0057C114.114 24.4915 114.458 24.0909 114.898 23.804C115.341 23.5142 115.858 23.3693 116.449 23.3693C116.79 23.3693 117.127 23.4261 117.459 23.5398C117.792 23.6534 118.094 23.8381 118.367 24.0938C118.64 24.3466 118.857 24.6818 119.019 25.0994C119.181 25.517 119.262 26.0312 119.262 26.642V27.0682H114.216V26.1989H118.239C118.239 25.8295 118.165 25.5 118.017 25.2102C117.873 24.9205 117.665 24.6918 117.395 24.5241C117.128 24.3565 116.813 24.2727 116.449 24.2727C116.049 24.2727 115.702 24.3722 115.409 24.571C115.12 24.767 114.897 25.0227 114.74 25.3381C114.584 25.6534 114.506 25.9915 114.506 26.3523V26.9318C114.506 27.4261 114.591 27.8452 114.762 28.1889C114.935 28.5298 115.175 28.7898 115.482 28.9688C115.789 29.1449 116.145 29.233 116.551 29.233C116.816 29.233 117.054 29.196 117.267 29.1222C117.483 29.0455 117.669 28.9318 117.826 28.7812C117.982 28.6278 118.103 28.4375 118.188 28.2102L119.159 28.483C119.057 28.8125 118.885 29.1023 118.644 29.3523C118.402 29.5994 118.104 29.7926 117.749 29.9318C117.394 30.0682 116.995 30.1364 116.551 30.1364ZM121.797 26.0625V30H120.792V23.4545H121.763V24.4773H121.848C122.002 24.1449 122.235 23.8778 122.547 23.6761C122.86 23.4716 123.263 23.3693 123.757 23.3693C124.201 23.3693 124.588 23.4602 124.921 23.642C125.253 23.821 125.512 24.0938 125.696 24.4602C125.881 24.8239 125.973 25.2841 125.973 25.8409V30H124.968V25.9091C124.968 25.3949 124.834 24.9943 124.567 24.7074C124.3 24.4176 123.934 24.2727 123.468 24.2727C123.147 24.2727 122.86 24.3423 122.607 24.4815C122.357 24.6207 122.159 24.8239 122.015 25.0909C121.87 25.358 121.797 25.6818 121.797 26.0625ZM130.658 23.4545V24.3068H127.266V23.4545H130.658ZM128.254 21.8864H129.26V28.125C129.26 28.4091 129.301 28.6222 129.384 28.7642C129.469 28.9034 129.577 28.9972 129.707 29.0455C129.841 29.0909 129.982 29.1136 130.129 29.1136C130.24 29.1136 130.331 29.108 130.402 29.0966C130.473 29.0824 130.53 29.071 130.572 29.0625L130.777 29.9659C130.709 29.9915 130.614 30.017 130.491 30.0426C130.369 30.071 130.214 30.0852 130.027 30.0852C129.743 30.0852 129.464 30.0241 129.192 29.902C128.922 29.7798 128.697 29.5938 128.518 29.3438C128.342 29.0938 128.254 28.7784 128.254 28.3977V21.8864ZM136.69 24.9205L135.786 25.1761C135.729 25.0256 135.646 24.8793 135.535 24.7372C135.427 24.5923 135.279 24.473 135.092 24.3793C134.904 24.2855 134.664 24.2386 134.371 24.2386C133.971 24.2386 133.637 24.331 133.37 24.5156C133.106 24.6974 132.974 24.929 132.974 25.2102C132.974 25.4602 133.065 25.6577 133.246 25.8026C133.428 25.9474 133.712 26.0682 134.099 26.1648L135.07 26.4034C135.656 26.5455 136.092 26.7628 136.379 27.0554C136.665 27.3452 136.809 27.7187 136.809 28.1761C136.809 28.5511 136.701 28.8864 136.485 29.1818C136.272 29.4773 135.974 29.7102 135.59 29.8807C135.207 30.0511 134.761 30.1364 134.252 30.1364C133.585 30.1364 133.032 29.9915 132.594 29.7017C132.157 29.4119 131.88 28.9886 131.763 28.4318L132.718 28.1932C132.809 28.5455 132.981 28.8097 133.234 28.9858C133.489 29.1619 133.823 29.25 134.235 29.25C134.704 29.25 135.076 29.1506 135.352 28.9517C135.63 28.75 135.769 28.5085 135.769 28.2273C135.769 28 135.69 27.8097 135.531 27.6562C135.371 27.5 135.127 27.3835 134.798 27.3068L133.707 27.0511C133.107 26.9091 132.667 26.6889 132.386 26.3906C132.107 26.0895 131.968 25.7131 131.968 25.2614C131.968 24.892 132.072 24.5653 132.279 24.2812C132.489 23.9972 132.775 23.7741 133.136 23.6122C133.499 23.4503 133.911 23.3693 134.371 23.3693C135.019 23.3693 135.528 23.5114 135.897 23.7955C136.269 24.0795 136.533 24.4545 136.69 24.9205Z" fill="#A9A7B6"/>
<path d="M130 57.6666V49.3333" stroke="#52BD94" stroke-width="1.66667" stroke-linecap="round" stroke-linejoin="round"/>
<path d="M125 57.6666V44.3333" stroke="#52BD94" stroke-width="1.66667" stroke-linecap="round" stroke-linejoin="round"/>
<path d="M120 57.6667V52.6667" stroke="#52BD94" stroke-width="1.66667" stroke-linecap="round" stroke-linejoin="round"/>
<defs>
<filter id="filter0_d_360_1074" x="0" y="0" width="279" height="88" filterUnits="userSpaceOnUse" color-interpolation-filters="sRGB">
<feFlood flood-opacity="0" result="BackgroundImageFix"/>
<feColorMatrix in="SourceAlpha" type="matrix" values="0 0 0 0 0 0 0 0 0 0 0 0 0 0 0 0 0 0 127 0" result="hardAlpha"/>
<feOffset dy="4"/>
<feGaussianBlur stdDeviation="4.5"/>
<feComposite in2="hardAlpha" operator="out"/>
<feColorMatrix type="matrix" values="0 0 0 0 0 0 0 0 0 0 0 0 0 0 0 0 0 0 0.2 0"/>
<feBlend mode="normal" in2="BackgroundImageFix" result="effect1_dropShadow_360_1074"/>
<feBlend mode="normal" in="SourceGraphic" in2="effect1_dropShadow_360_1074" result="shape"/>
</filter>
</defs>
</svg>
